solid OpenSCAD_Model
  facet normal 1 -0 0
    outer loop
      vertex 0 22.7629 14
      vertex 0 38 0
      vertex 0 38 14
    endloop
  endfacet
  facet normal 1 0 0
    outer loop
      vertex 0 38 0
      vertex 0 22.7629 14
      vertex 0 22.7629 0
    endloop
  endfacet
  facet normal 1 -0 0
    outer loop
      vertex 0 -38 14
      vertex 0 -22.7629 0
      vertex 0 -22.7629 14
    endloop
  endfacet
  facet normal 1 0 0
    outer loop
      vertex 0 -22.7629 0
      vertex 0 -38 14
      vertex 0 -38 0
    endloop
  endfacet
  facet normal 0 0 1
    outer loop
      vertex 0 38 14
      vertex -0.173745 22.7035 14
      vertex 0 22.7629 14
    endloop
  endfacet
  facet normal 0 0 1
    outer loop
      vertex 0 38 14
      vertex -0.882845 22.4355 14
      vertex -0.173745 22.7035 14
    endloop
  endfacet
  facet normal 0 0 1
    outer loop
      vertex 0 38 14
      vertex -1.58318 22.1454 14
      vertex -0.882845 22.4355 14
    endloop
  endfacet
  facet normal 0 0 1
    outer loop
      vertex 0 38 14
      vertex -2.27405 21.8335 14
      vertex -1.58318 22.1454 14
    endloop
  endfacet
  facet normal 0 0 1
    outer loop
      vertex 0 38 14
      vertex -2.95479 21.5 14
      vertex -2.27405 21.8335 14
    endloop
  endfacet
  facet normal 0 0 1
    outer loop
      vertex 0 38 14
      vertex -3.62472 21.1453 14
      vertex -2.95479 21.5 14
    endloop
  endfacet
  facet normal -0 0 1
    outer loop
      vertex -18 38 14
      vertex -3.62472 21.1453 14
      vertex 0 38 14
    endloop
  endfacet
  facet normal 0 0 1
    outer loop
      vertex -3.62472 21.1453 14
      vertex -18 38 14
      vertex -4.28317 20.7697 14
    endloop
  endfacet
  facet normal 0 0 1
    outer loop
      vertex -4.28317 20.7697 14
      vertex -18 38 14
      vertex -4.9295 20.3736 14
    endloop
  endfacet
  facet normal 0 0 1
    outer loop
      vertex -4.9295 20.3736 14
      vertex -18 38 14
      vertex -5.56307 19.9575 14
    endloop
  endfacet
  facet normal 0 0 1
    outer loop
      vertex -5.56307 19.9575 14
      vertex -18 38 14
      vertex -6.18326 19.5216 14
    endloop
  endfacet
  facet normal 0 0 1
    outer loop
      vertex -6.18326 19.5216 14
      vertex -18 38 14
      vertex -6.78945 19.0664 14
    endloop
  endfacet
  facet normal 0 0 1
    outer loop
      vertex -6.78945 19.0664 14
      vertex -18 38 14
      vertex -7.38104 18.5925 14
    endloop
  endfacet
  facet normal 0 0 1
    outer loop
      vertex -7.38104 18.5925 14
      vertex -18 38 14
      vertex -7.95745 18.1002 14
    endloop
  endfacet
  facet normal 0 0 1
    outer loop
      vertex -7.95745 18.1002 14
      vertex -18 38 14
      vertex -8.51812 17.59 14
    endloop
  endfacet
  facet normal 0 0 1
    outer loop
      vertex -8.51812 17.59 14
      vertex -18 38 14
      vertex -9.06249 17.0625 14
    endloop
  endfacet
  facet normal 0 0 1
    outer loop
      vertex -9.06249 17.0625 14
      vertex -18 38 14
      vertex -9.59001 16.5181 14
    endloop
  endfacet
  facet normal 0 0 1
    outer loop
      vertex -9.59001 16.5181 14
      vertex -18 38 14
      vertex -10.1002 15.9575 14
    endloop
  endfacet
  facet normal 0 0 1
    outer loop
      vertex -10.1002 15.9575 14
      vertex -18 38 14
      vertex -10.5925 15.381 14
    endloop
  endfacet
  facet normal 0 0 1
    outer loop
      vertex -10.5925 15.381 14
      vertex -18 38 14
      vertex -11.0664 14.7894 14
    endloop
  endfacet
  facet normal 0 0 1
    outer loop
      vertex -11.0664 14.7894 14
      vertex -18 38 14
      vertex -11.5216 14.1833 14
    endloop
  endfacet
  facet normal 0 0 1
    outer loop
      vertex -11.5216 14.1833 14
      vertex -18 38 14
      vertex -11.9575 13.5631 14
    endloop
  endfacet
  facet normal 0 0 1
    outer loop
      vertex -11.9575 13.5631 14
      vertex -18 38 14
      vertex -12.3736 12.9295 14
    endloop
  endfacet
  facet normal 0 0 1
    outer loop
      vertex -12.3736 12.9295 14
      vertex -18 38 14
      vertex -12.7697 12.2832 14
    endloop
  endfacet
  facet normal 0 0 1
    outer loop
      vertex -12.7697 12.2832 14
      vertex -18 38 14
      vertex -13.1453 11.6247 14
    endloop
  endfacet
  facet normal 0 0 1
    outer loop
      vertex -16.1181 0.757941 14
      vertex -18 38 14
      vertex -16.13 0 14
    endloop
  endfacet
  facet normal 0 0 1
    outer loop
      vertex -16.0824 1.51513 14
      vertex -18 38 14
      vertex -16.1181 0.757941 14
    endloop
  endfacet
  facet normal 0 0 1
    outer loop
      vertex -16.0229 2.27083 14
      vertex -18 38 14
      vertex -16.0824 1.51513 14
    endloop
  endfacet
  facet normal 0 0 1
    outer loop
      vertex -15.9397 3.02429 14
      vertex -18 38 14
      vertex -16.0229 2.27083 14
    endloop
  endfacet
  facet normal 0 0 1
    outer loop
      vertex -15.8329 3.77476 14
      vertex -18 38 14
      vertex -15.9397 3.02429 14
    endloop
  endfacet
  facet normal 0 0 1
    outer loop
      vertex -15.7026 4.52151 14
      vertex -18 38 14
      vertex -15.8329 3.77476 14
    endloop
  endfacet
  facet normal 0 0 1
    outer loop
      vertex -15.5489 5.2638 14
      vertex -18 38 14
      vertex -15.7026 4.52151 14
    endloop
  endfacet
  facet normal 0 0 1
    outer loop
      vertex -15.3719 6.00089 14
      vertex -18 38 14
      vertex -15.5489 5.2638 14
    endloop
  endfacet
  facet normal 0 0 1
    outer loop
      vertex -15.1719 6.73205 14
      vertex -18 38 14
      vertex -15.3719 6.00089 14
    endloop
  endfacet
  facet normal 0 0 1
    outer loop
      vertex -14.949 7.45658 14
      vertex -18 38 14
      vertex -15.1719 6.73205 14
    endloop
  endfacet
  facet normal 0 0 1
    outer loop
      vertex -14.7035 8.17375 14
      vertex -18 38 14
      vertex -14.949 7.45658 14
    endloop
  endfacet
  facet normal 0 0 1
    outer loop
      vertex -14.4355 8.88284 14
      vertex -18 38 14
      vertex -14.7035 8.17375 14
    endloop
  endfacet
  facet normal 0 0 1
    outer loop
      vertex -14.1454 9.58318 14
      vertex -18 38 14
      vertex -14.4355 8.88284 14
    endloop
  endfacet
  facet normal 0 0 1
    outer loop
      vertex -13.8335 10.2741 14
      vertex -18 38 14
      vertex -14.1454 9.58318 14
    endloop
  endfacet
  facet normal 0 0 1
    outer loop
      vertex -13.5 10.9548 14
      vertex -18 38 14
      vertex -13.8335 10.2741 14
    endloop
  endfacet
  facet normal 0 0 1
    outer loop
      vertex -13.1453 11.6247 14
      vertex -18 38 14
      vertex -13.5 10.9548 14
    endloop
  endfacet
  facet normal 0 0 1
    outer loop
      vertex -0.173745 -22.7035 14
      vertex 0 -38 14
      vertex 0 -22.7629 14
    endloop
  endfacet
  facet normal 0 0 1
    outer loop
      vertex -0.882845 -22.4355 14
      vertex 0 -38 14
      vertex -0.173745 -22.7035 14
    endloop
  endfacet
  facet normal 0 0 1
    outer loop
      vertex -1.58318 -22.1454 14
      vertex 0 -38 14
      vertex -0.882845 -22.4355 14
    endloop
  endfacet
  facet normal 0 0 1
    outer loop
      vertex -2.27405 -21.8335 14
      vertex 0 -38 14
      vertex -1.58318 -22.1454 14
    endloop
  endfacet
  facet normal 0 0 1
    outer loop
      vertex -2.95479 -21.5 14
      vertex 0 -38 14
      vertex -2.27405 -21.8335 14
    endloop
  endfacet
  facet normal 0 0 1
    outer loop
      vertex -3.62472 -21.1453 14
      vertex 0 -38 14
      vertex -2.95479 -21.5 14
    endloop
  endfacet
  facet normal 0 0 1
    outer loop
      vertex -18 -38 14
      vertex -3.62472 -21.1453 14
      vertex -4.28317 -20.7697 14
    endloop
  endfacet
  facet normal 0 0 1
    outer loop
      vertex -18 -38 14
      vertex -4.28317 -20.7697 14
      vertex -4.9295 -20.3736 14
    endloop
  endfacet
  facet normal 0 0 1
    outer loop
      vertex -18 -38 14
      vertex -4.9295 -20.3736 14
      vertex -5.56307 -19.9575 14
    endloop
  endfacet
  facet normal 0 0 1
    outer loop
      vertex -18 -38 14
      vertex -5.56307 -19.9575 14
      vertex -6.18326 -19.5216 14
    endloop
  endfacet
  facet normal 0 0 1
    outer loop
      vertex -18 -38 14
      vertex -6.18326 -19.5216 14
      vertex -6.78945 -19.0664 14
    endloop
  endfacet
  facet normal 0 0 1
    outer loop
      vertex -18 -38 14
      vertex -6.78945 -19.0664 14
      vertex -7.38104 -18.5925 14
    endloop
  endfacet
  facet normal 0 0 1
    outer loop
      vertex -18 -38 14
      vertex -7.38104 -18.5925 14
      vertex -7.95745 -18.1002 14
    endloop
  endfacet
  facet normal 0 0 1
    outer loop
      vertex -18 -38 14
      vertex -7.95745 -18.1002 14
      vertex -8.51812 -17.59 14
    endloop
  endfacet
  facet normal 0 0 1
    outer loop
      vertex -18 -38 14
      vertex -8.51812 -17.59 14
      vertex -9.06249 -17.0625 14
    endloop
  endfacet
  facet normal 0 0 1
    outer loop
      vertex -18 -38 14
      vertex -9.06249 -17.0625 14
      vertex -9.59001 -16.5181 14
    endloop
  endfacet
  facet normal 0 0 1
    outer loop
      vertex -18 -38 14
      vertex -9.59001 -16.5181 14
      vertex -10.1002 -15.9575 14
    endloop
  endfacet
  facet normal 0 0 1
    outer loop
      vertex -18 -38 14
      vertex -10.1002 -15.9575 14
      vertex -10.5925 -15.381 14
    endloop
  endfacet
  facet normal 0 0 1
    outer loop
      vertex -18 -38 14
      vertex -10.5925 -15.381 14
      vertex -11.0664 -14.7894 14
    endloop
  endfacet
  facet normal 0 0 1
    outer loop
      vertex -18 -38 14
      vertex -11.0664 -14.7894 14
      vertex -11.5216 -14.1833 14
    endloop
  endfacet
  facet normal 0 0 1
    outer loop
      vertex -18 -38 14
      vertex -11.5216 -14.1833 14
      vertex -11.9575 -13.5631 14
    endloop
  endfacet
  facet normal 0 0 1
    outer loop
      vertex -18 -38 14
      vertex -11.9575 -13.5631 14
      vertex -12.3736 -12.9295 14
    endloop
  endfacet
  facet normal 0 0 1
    outer loop
      vertex -18 -38 14
      vertex -12.3736 -12.9295 14
      vertex -12.7697 -12.2832 14
    endloop
  endfacet
  facet normal 0 0 1
    outer loop
      vertex -18 -38 14
      vertex -12.7697 -12.2832 14
      vertex -13.1453 -11.6247 14
    endloop
  endfacet
  facet normal 0 0 1
    outer loop
      vertex -18 -38 14
      vertex -13.1453 -11.6247 14
      vertex -13.5 -10.9548 14
    endloop
  endfacet
  facet normal 0 0 1
    outer loop
      vertex -18 -38 14
      vertex -16.13 0 14
      vertex -18 38 14
    endloop
  endfacet
  facet normal 0 0 1
    outer loop
      vertex -16.13 0 14
      vertex -18 -38 14
      vertex -16.1181 -0.757941 14
    endloop
  endfacet
  facet normal 0 0 1
    outer loop
      vertex -3.62472 -21.1453 14
      vertex -18 -38 14
      vertex 0 -38 14
    endloop
  endfacet
  facet normal 0 0 1
    outer loop
      vertex -13.8335 -10.2741 14
      vertex -18 -38 14
      vertex -13.5 -10.9548 14
    endloop
  endfacet
  facet normal 0 0 1
    outer loop
      vertex -14.1454 -9.58318 14
      vertex -18 -38 14
      vertex -13.8335 -10.2741 14
    endloop
  endfacet
  facet normal 0 0 1
    outer loop
      vertex -14.4355 -8.88284 14
      vertex -18 -38 14
      vertex -14.1454 -9.58318 14
    endloop
  endfacet
  facet normal 0 0 1
    outer loop
      vertex -14.7035 -8.17375 14
      vertex -18 -38 14
      vertex -14.4355 -8.88284 14
    endloop
  endfacet
  facet normal 0 0 1
    outer loop
      vertex -14.949 -7.45658 14
      vertex -18 -38 14
      vertex -14.7035 -8.17375 14
    endloop
  endfacet
  facet normal 0 0 1
    outer loop
      vertex -15.1719 -6.73205 14
      vertex -18 -38 14
      vertex -14.949 -7.45658 14
    endloop
  endfacet
  facet normal 0 0 1
    outer loop
      vertex -15.3719 -6.00089 14
      vertex -18 -38 14
      vertex -15.1719 -6.73205 14
    endloop
  endfacet
  facet normal 0 0 1
    outer loop
      vertex -15.5489 -5.2638 14
      vertex -18 -38 14
      vertex -15.3719 -6.00089 14
    endloop
  endfacet
  facet normal 0 0 1
    outer loop
      vertex -15.7026 -4.52151 14
      vertex -18 -38 14
      vertex -15.5489 -5.2638 14
    endloop
  endfacet
  facet normal 0 0 1
    outer loop
      vertex -15.8329 -3.77476 14
      vertex -18 -38 14
      vertex -15.7026 -4.52151 14
    endloop
  endfacet
  facet normal 0 0 1
    outer loop
      vertex -15.9397 -3.02429 14
      vertex -18 -38 14
      vertex -15.8329 -3.77476 14
    endloop
  endfacet
  facet normal 0 0 1
    outer loop
      vertex -16.0229 -2.27083 14
      vertex -18 -38 14
      vertex -15.9397 -3.02429 14
    endloop
  endfacet
  facet normal 0 0 1
    outer loop
      vertex -16.0824 -1.51513 14
      vertex -18 -38 14
      vertex -16.0229 -2.27083 14
    endloop
  endfacet
  facet normal 0 0 1
    outer loop
      vertex -16.1181 -0.757941 14
      vertex -18 -38 14
      vertex -16.0824 -1.51513 14
    endloop
  endfacet
  facet normal 0 0 -1
    outer loop
      vertex 0 -38 0
      vertex -0.173745 -22.7035 0
      vertex 0 -22.7629 0
    endloop
  endfacet
  facet normal 0 0 -1
    outer loop
      vertex 0 -38 0
      vertex -0.882845 -22.4355 0
      vertex -0.173745 -22.7035 0
    endloop
  endfacet
  facet normal 0 0 -1
    outer loop
      vertex 0 -38 0
      vertex -1.58318 -22.1454 0
      vertex -0.882845 -22.4355 0
    endloop
  endfacet
  facet normal 0 0 -1
    outer loop
      vertex 0 -38 0
      vertex -2.27405 -21.8335 0
      vertex -1.58318 -22.1454 0
    endloop
  endfacet
  facet normal 0 0 -1
    outer loop
      vertex 0 -38 0
      vertex -2.95479 -21.5 0
      vertex -2.27405 -21.8335 0
    endloop
  endfacet
  facet normal 0 0 -1
    outer loop
      vertex 0 -38 0
      vertex -3.62472 -21.1453 0
      vertex -2.95479 -21.5 0
    endloop
  endfacet
  facet normal 0 0 -1
    outer loop
      vertex -18 -38 0
      vertex -3.62472 -21.1453 0
      vertex 0 -38 0
    endloop
  endfacet
  facet normal -0 0 -1
    outer loop
      vertex -3.62472 -21.1453 0
      vertex -18 -38 0
      vertex -4.28317 -20.7697 0
    endloop
  endfacet
  facet normal -0 0 -1
    outer loop
      vertex -4.28317 -20.7697 0
      vertex -18 -38 0
      vertex -4.9295 -20.3736 0
    endloop
  endfacet
  facet normal -0 0 -1
    outer loop
      vertex -4.9295 -20.3736 0
      vertex -18 -38 0
      vertex -5.56307 -19.9575 0
    endloop
  endfacet
  facet normal -0 0 -1
    outer loop
      vertex -5.56307 -19.9575 0
      vertex -18 -38 0
      vertex -6.18326 -19.5216 0
    endloop
  endfacet
  facet normal -0 0 -1
    outer loop
      vertex -6.18326 -19.5216 0
      vertex -18 -38 0
      vertex -6.78945 -19.0664 0
    endloop
  endfacet
  facet normal -0 0 -1
    outer loop
      vertex -6.78945 -19.0664 0
      vertex -18 -38 0
      vertex -7.38104 -18.5925 0
    endloop
  endfacet
  facet normal -0 0 -1
    outer loop
      vertex -7.38104 -18.5925 0
      vertex -18 -38 0
      vertex -7.95745 -18.1002 0
    endloop
  endfacet
  facet normal -0 0 -1
    outer loop
      vertex -7.95745 -18.1002 0
      vertex -18 -38 0
      vertex -8.51812 -17.59 0
    endloop
  endfacet
  facet normal -0 0 -1
    outer loop
      vertex -8.51812 -17.59 0
      vertex -18 -38 0
      vertex -9.06249 -17.0625 0
    endloop
  endfacet
  facet normal -0 0 -1
    outer loop
      vertex -9.06249 -17.0625 0
      vertex -18 -38 0
      vertex -9.59001 -16.5181 0
    endloop
  endfacet
  facet normal -0 0 -1
    outer loop
      vertex -9.59001 -16.5181 0
      vertex -18 -38 0
      vertex -10.1002 -15.9575 0
    endloop
  endfacet
  facet normal -0 0 -1
    outer loop
      vertex -10.1002 -15.9575 0
      vertex -18 -38 0
      vertex -10.5925 -15.381 0
    endloop
  endfacet
  facet normal -0 0 -1
    outer loop
      vertex -10.5925 -15.381 0
      vertex -18 -38 0
      vertex -11.0664 -14.7894 0
    endloop
  endfacet
  facet normal -0 0 -1
    outer loop
      vertex -11.0664 -14.7894 0
      vertex -18 -38 0
      vertex -11.5216 -14.1833 0
    endloop
  endfacet
  facet normal -0 0 -1
    outer loop
      vertex -11.5216 -14.1833 0
      vertex -18 -38 0
      vertex -11.9575 -13.5631 0
    endloop
  endfacet
  facet normal -0 0 -1
    outer loop
      vertex -11.9575 -13.5631 0
      vertex -18 -38 0
      vertex -12.3736 -12.9295 0
    endloop
  endfacet
  facet normal -0 0 -1
    outer loop
      vertex -12.3736 -12.9295 0
      vertex -18 -38 0
      vertex -12.7697 -12.2832 0
    endloop
  endfacet
  facet normal -0 0 -1
    outer loop
      vertex -12.7697 -12.2832 0
      vertex -18 -38 0
      vertex -13.1453 -11.6247 0
    endloop
  endfacet
  facet normal -0 0 -1
    outer loop
      vertex -16.1181 -0.757941 0
      vertex -18 -38 0
      vertex -16.13 0 0
    endloop
  endfacet
  facet normal -0 0 -1
    outer loop
      vertex -16.0824 -1.51513 0
      vertex -18 -38 0
      vertex -16.1181 -0.757941 0
    endloop
  endfacet
  facet normal -0 0 -1
    outer loop
      vertex -16.0229 -2.27083 0
      vertex -18 -38 0
      vertex -16.0824 -1.51513 0
    endloop
  endfacet
  facet normal -0 0 -1
    outer loop
      vertex -15.9397 -3.02429 0
      vertex -18 -38 0
      vertex -16.0229 -2.27083 0
    endloop
  endfacet
  facet normal -0 0 -1
    outer loop
      vertex -15.8329 -3.77476 0
      vertex -18 -38 0
      vertex -15.9397 -3.02429 0
    endloop
  endfacet
  facet normal -0 0 -1
    outer loop
      vertex -15.7026 -4.52151 0
      vertex -18 -38 0
      vertex -15.8329 -3.77476 0
    endloop
  endfacet
  facet normal -0 0 -1
    outer loop
      vertex -15.5489 -5.2638 0
      vertex -18 -38 0
      vertex -15.7026 -4.52151 0
    endloop
  endfacet
  facet normal -0 0 -1
    outer loop
      vertex -15.3719 -6.00089 0
      vertex -18 -38 0
      vertex -15.5489 -5.2638 0
    endloop
  endfacet
  facet normal -0 0 -1
    outer loop
      vertex -15.1719 -6.73205 0
      vertex -18 -38 0
      vertex -15.3719 -6.00089 0
    endloop
  endfacet
  facet normal -0 0 -1
    outer loop
      vertex -14.949 -7.45658 0
      vertex -18 -38 0
      vertex -15.1719 -6.73205 0
    endloop
  endfacet
  facet normal -0 0 -1
    outer loop
      vertex -14.7035 -8.17375 0
      vertex -18 -38 0
      vertex -14.949 -7.45658 0
    endloop
  endfacet
  facet normal -0 0 -1
    outer loop
      vertex -14.4355 -8.88284 0
      vertex -18 -38 0
      vertex -14.7035 -8.17375 0
    endloop
  endfacet
  facet normal -0 0 -1
    outer loop
      vertex -14.1454 -9.58318 0
      vertex -18 -38 0
      vertex -14.4355 -8.88284 0
    endloop
  endfacet
  facet normal -0 0 -1
    outer loop
      vertex -13.8335 -10.2741 0
      vertex -18 -38 0
      vertex -14.1454 -9.58318 0
    endloop
  endfacet
  facet normal -0 0 -1
    outer loop
      vertex -13.5 -10.9548 0
      vertex -18 -38 0
      vertex -13.8335 -10.2741 0
    endloop
  endfacet
  facet normal -0 0 -1
    outer loop
      vertex -13.1453 -11.6247 0
      vertex -18 -38 0
      vertex -13.5 -10.9548 0
    endloop
  endfacet
  facet normal 0 0 -1
    outer loop
      vertex -0.173745 22.7035 0
      vertex 0 38 0
      vertex 0 22.7629 0
    endloop
  endfacet
  facet normal 0 0 -1
    outer loop
      vertex -0.882845 22.4355 0
      vertex 0 38 0
      vertex -0.173745 22.7035 0
    endloop
  endfacet
  facet normal 0 0 -1
    outer loop
      vertex -1.58318 22.1454 0
      vertex 0 38 0
      vertex -0.882845 22.4355 0
    endloop
  endfacet
  facet normal 0 0 -1
    outer loop
      vertex -2.27405 21.8335 0
      vertex 0 38 0
      vertex -1.58318 22.1454 0
    endloop
  endfacet
  facet normal 0 0 -1
    outer loop
      vertex -2.95479 21.5 0
      vertex 0 38 0
      vertex -2.27405 21.8335 0
    endloop
  endfacet
  facet normal 0 0 -1
    outer loop
      vertex -3.62472 21.1453 0
      vertex 0 38 0
      vertex -2.95479 21.5 0
    endloop
  endfacet
  facet normal 0 0 -1
    outer loop
      vertex -18 38 0
      vertex -3.62472 21.1453 0
      vertex -4.28317 20.7697 0
    endloop
  endfacet
  facet normal 0 0 -1
    outer loop
      vertex -18 38 0
      vertex -4.28317 20.7697 0
      vertex -4.9295 20.3736 0
    endloop
  endfacet
  facet normal 0 0 -1
    outer loop
      vertex -18 38 0
      vertex -4.9295 20.3736 0
      vertex -5.56307 19.9575 0
    endloop
  endfacet
  facet normal 0 0 -1
    outer loop
      vertex -18 38 0
      vertex -5.56307 19.9575 0
      vertex -6.18326 19.5216 0
    endloop
  endfacet
  facet normal 0 0 -1
    outer loop
      vertex -18 38 0
      vertex -6.18326 19.5216 0
      vertex -6.78945 19.0664 0
    endloop
  endfacet
  facet normal 0 0 -1
    outer loop
      vertex -18 38 0
      vertex -6.78945 19.0664 0
      vertex -7.38104 18.5925 0
    endloop
  endfacet
  facet normal 0 0 -1
    outer loop
      vertex -18 38 0
      vertex -7.38104 18.5925 0
      vertex -7.95745 18.1002 0
    endloop
  endfacet
  facet normal 0 0 -1
    outer loop
      vertex -18 38 0
      vertex -7.95745 18.1002 0
      vertex -8.51812 17.59 0
    endloop
  endfacet
  facet normal 0 0 -1
    outer loop
      vertex -18 38 0
      vertex -8.51812 17.59 0
      vertex -9.06249 17.0625 0
    endloop
  endfacet
  facet normal 0 0 -1
    outer loop
      vertex -18 38 0
      vertex -9.06249 17.0625 0
      vertex -9.59001 16.5181 0
    endloop
  endfacet
  facet normal 0 0 -1
    outer loop
      vertex -18 38 0
      vertex -9.59001 16.5181 0
      vertex -10.1002 15.9575 0
    endloop
  endfacet
  facet normal 0 0 -1
    outer loop
      vertex -18 38 0
      vertex -10.1002 15.9575 0
      vertex -10.5925 15.381 0
    endloop
  endfacet
  facet normal 0 0 -1
    outer loop
      vertex -18 38 0
      vertex -10.5925 15.381 0
      vertex -11.0664 14.7894 0
    endloop
  endfacet
  facet normal 0 0 -1
    outer loop
      vertex -18 38 0
      vertex -11.0664 14.7894 0
      vertex -11.5216 14.1833 0
    endloop
  endfacet
  facet normal 0 0 -1
    outer loop
      vertex -18 38 0
      vertex -11.5216 14.1833 0
      vertex -11.9575 13.5631 0
    endloop
  endfacet
  facet normal 0 0 -1
    outer loop
      vertex -18 38 0
      vertex -11.9575 13.5631 0
      vertex -12.3736 12.9295 0
    endloop
  endfacet
  facet normal 0 0 -1
    outer loop
      vertex -18 38 0
      vertex -12.3736 12.9295 0
      vertex -12.7697 12.2832 0
    endloop
  endfacet
  facet normal 0 0 -1
    outer loop
      vertex -18 38 0
      vertex -12.7697 12.2832 0
      vertex -13.1453 11.6247 0
    endloop
  endfacet
  facet normal 0 0 -1
    outer loop
      vertex -18 38 0
      vertex -13.1453 11.6247 0
      vertex -13.5 10.9548 0
    endloop
  endfacet
  facet normal 0 0 -1
    outer loop
      vertex -18 38 0
      vertex -16.13 0 0
      vertex -18 -38 0
    endloop
  endfacet
  facet normal 0 0 -1
    outer loop
      vertex -16.13 0 0
      vertex -18 38 0
      vertex -16.1181 0.757941 0
    endloop
  endfacet
  facet normal 0 0 -1
    outer loop
      vertex -3.62472 21.1453 0
      vertex -18 38 0
      vertex 0 38 0
    endloop
  endfacet
  facet normal 0 0 -1
    outer loop
      vertex -13.8335 10.2741 0
      vertex -18 38 0
      vertex -13.5 10.9548 0
    endloop
  endfacet
  facet normal 0 0 -1
    outer loop
      vertex -14.1454 9.58318 0
      vertex -18 38 0
      vertex -13.8335 10.2741 0
    endloop
  endfacet
  facet normal 0 0 -1
    outer loop
      vertex -14.4355 8.88284 0
      vertex -18 38 0
      vertex -14.1454 9.58318 0
    endloop
  endfacet
  facet normal 0 0 -1
    outer loop
      vertex -14.7035 8.17375 0
      vertex -18 38 0
      vertex -14.4355 8.88284 0
    endloop
  endfacet
  facet normal 0 0 -1
    outer loop
      vertex -14.949 7.45658 0
      vertex -18 38 0
      vertex -14.7035 8.17375 0
    endloop
  endfacet
  facet normal 0 0 -1
    outer loop
      vertex -15.1719 6.73205 0
      vertex -18 38 0
      vertex -14.949 7.45658 0
    endloop
  endfacet
  facet normal 0 0 -1
    outer loop
      vertex -15.3719 6.00089 0
      vertex -18 38 0
      vertex -15.1719 6.73205 0
    endloop
  endfacet
  facet normal 0 0 -1
    outer loop
      vertex -15.5489 5.2638 0
      vertex -18 38 0
      vertex -15.3719 6.00089 0
    endloop
  endfacet
  facet normal 0 0 -1
    outer loop
      vertex -15.7026 4.52151 0
      vertex -18 38 0
      vertex -15.5489 5.2638 0
    endloop
  endfacet
  facet normal 0 0 -1
    outer loop
      vertex -15.8329 3.77476 0
      vertex -18 38 0
      vertex -15.7026 4.52151 0
    endloop
  endfacet
  facet normal 0 0 -1
    outer loop
      vertex -15.9397 3.02429 0
      vertex -18 38 0
      vertex -15.8329 3.77476 0
    endloop
  endfacet
  facet normal 0 0 -1
    outer loop
      vertex -16.0229 2.27083 0
      vertex -18 38 0
      vertex -15.9397 3.02429 0
    endloop
  endfacet
  facet normal 0 0 -1
    outer loop
      vertex -16.0824 1.51513 0
      vertex -18 38 0
      vertex -16.0229 2.27083 0
    endloop
  endfacet
  facet normal 0 0 -1
    outer loop
      vertex -16.1181 0.757941 0
      vertex -18 38 0
      vertex -16.0824 1.51513 0
    endloop
  endfacet
  facet normal -1 0 0
    outer loop
      vertex -18 -38 0
      vertex -18 38 14
      vertex -18 38 0
    endloop
  endfacet
  facet normal -1 -0 0
    outer loop
      vertex -18 38 14
      vertex -18 -38 0
      vertex -18 -38 14
    endloop
  endfacet
  facet normal 0 1 -0
    outer loop
      vertex 0 38 0
      vertex -18 38 14
      vertex 0 38 14
    endloop
  endfacet
  facet normal 0 1 0
    outer loop
      vertex -18 38 14
      vertex 0 38 0
      vertex -18 38 0
    endloop
  endfacet
  facet normal 0 -1 0
    outer loop
      vertex -18 -38 0
      vertex 0 -38 14
      vertex -18 -38 14
    endloop
  endfacet
  facet normal 0 -1 -0
    outer loop
      vertex 0 -38 14
      vertex -18 -38 0
      vertex 0 -38 0
    endloop
  endfacet
  facet normal 0.439949 0.898023 -0
    outer loop
      vertex -2.27405 -21.8335 0
      vertex -2.95479 -21.5 14
      vertex -2.27405 -21.8335 14
    endloop
  endfacet
  facet normal 0.439949 0.898023 0
    outer loop
      vertex -2.95479 -21.5 14
      vertex -2.27405 -21.8335 0
      vertex -2.95479 -21.5 0
    endloop
  endfacet
  facet normal 0.575026 0.818135 -0
    outer loop
      vertex -5.56307 -19.9575 0
      vertex -6.18326 -19.5216 14
      vertex -5.56307 -19.9575 14
    endloop
  endfacet
  facet normal 0.575026 0.818135 0
    outer loop
      vertex -6.18326 -19.5216 14
      vertex -5.56307 -19.9575 0
      vertex -6.18326 -19.5216 0
    endloop
  endfacet
  facet normal 0.382697 -0.923874 0
    outer loop
      vertex -1.58318 22.1454 0
      vertex -0.882845 22.4355 14
      vertex -1.58318 22.1454 14
    endloop
  endfacet
  facet normal 0.382697 -0.923874 0
    outer loop
      vertex -0.882845 22.4355 14
      vertex -1.58318 22.1454 0
      vertex -0.882845 22.4355 0
    endloop
  endfacet
  facet normal 0.78047 0.625194 0
    outer loop
      vertex -10.5925 -15.381 14
      vertex -11.0664 -14.7894 0
      vertex -11.0664 -14.7894 14
    endloop
  endfacet
  facet normal 0.78047 0.625194 0
    outer loop
      vertex -11.0664 -14.7894 0
      vertex -10.5925 -15.381 14
      vertex -10.5925 -15.381 0
    endloop
  endfacet
  facet normal 0.673034 0.739612 -0
    outer loop
      vertex -7.95745 -18.1002 0
      vertex -8.51812 -17.59 14
      vertex -7.95745 -18.1002 14
    endloop
  endfacet
  facet normal 0.673034 0.739612 0
    outer loop
      vertex -8.51812 -17.59 14
      vertex -7.95745 -18.1002 0
      vertex -8.51812 -17.59 0
    endloop
  endfacet
  facet normal 0.78047 -0.625194 0
    outer loop
      vertex -11.0664 14.7894 14
      vertex -10.5925 15.381 0
      vertex -10.5925 15.381 14
    endloop
  endfacet
  facet normal 0.78047 -0.625194 0
    outer loop
      vertex -10.5925 15.381 0
      vertex -11.0664 14.7894 14
      vertex -11.0664 14.7894 0
    endloop
  endfacet
  facet normal 0.323497 0.946229 -0
    outer loop
      vertex 0 -22.7629 0
      vertex -0.173745 -22.7035 14
      vertex 0 -22.7629 14
    endloop
  endfacet
  facet normal 0.323497 0.946229 0
    outer loop
      vertex -0.173745 -22.7035 14
      vertex 0 -22.7629 0
      vertex -0.173745 -22.7035 0
    endloop
  endfacet
  facet normal 0.411471 -0.911423 0
    outer loop
      vertex -2.27405 21.8335 0
      vertex -1.58318 22.1454 14
      vertex -2.27405 21.8335 14
    endloop
  endfacet
  facet normal 0.411471 -0.911423 0
    outer loop
      vertex -1.58318 22.1454 14
      vertex -2.27405 21.8335 0
      vertex -1.58318 22.1454 0
    endloop
  endfacet
  facet normal 0.81814 0.57502 0
    outer loop
      vertex -11.5216 -14.1833 14
      vertex -11.9575 -13.5631 0
      vertex -11.9575 -13.5631 14
    endloop
  endfacet
  facet normal 0.81814 0.57502 0
    outer loop
      vertex -11.9575 -13.5631 0
      vertex -11.5216 -14.1833 14
      vertex -11.5216 -14.1833 0
    endloop
  endfacet
  facet normal 0.935419 -0.353541 0
    outer loop
      vertex -14.7035 8.17375 14
      vertex -14.4355 8.88284 0
      vertex -14.4355 8.88284 14
    endloop
  endfacet
  facet normal 0.935419 -0.353541 0
    outer loop
      vertex -14.4355 8.88284 0
      vertex -14.7035 8.17375 14
      vertex -14.7035 8.17375 0
    endloop
  endfacet
  facet normal 0.695892 0.718147 -0
    outer loop
      vertex -8.51812 -17.59 0
      vertex -9.06249 -17.0625 14
      vertex -8.51812 -17.59 14
    endloop
  endfacet
  facet normal 0.695892 0.718147 0
    outer loop
      vertex -9.06249 -17.0625 14
      vertex -8.51812 -17.59 0
      vertex -9.06249 -17.0625 0
    endloop
  endfacet
  facet normal 0.323497 -0.946229 0
    outer loop
      vertex -0.173745 22.7035 0
      vertex 0 22.7629 14
      vertex -0.173745 22.7035 14
    endloop
  endfacet
  facet normal 0.323497 -0.946229 0
    outer loop
      vertex 0 22.7629 14
      vertex -0.173745 22.7035 0
      vertex 0 22.7629 0
    endloop
  endfacet
  facet normal 0.955791 -0.294047 0
    outer loop
      vertex -15.1719 6.73205 14
      vertex -14.949 7.45658 0
      vertex -14.949 7.45658 14
    endloop
  endfacet
  facet normal 0.955791 -0.294047 0
    outer loop
      vertex -14.949 7.45658 0
      vertex -15.1719 6.73205 14
      vertex -15.1719 6.73205 0
    endloop
  endfacet
  facet normal 0.972358 0.233496 0
    outer loop
      vertex -15.3719 -6.00089 14
      vertex -15.5489 -5.2638 0
      vertex -15.5489 -5.2638 14
    endloop
  endfacet
  facet normal 0.972358 0.233496 0
    outer loop
      vertex -15.5489 -5.2638 0
      vertex -15.3719 -6.00089 14
      vertex -15.3719 -6.00089 0
    endloop
  endfacet
  facet normal 0.673034 -0.739612 0
    outer loop
      vertex -8.51812 17.59 0
      vertex -7.95745 18.1002 14
      vertex -8.51812 17.59 14
    endloop
  endfacet
  facet normal 0.673034 -0.739612 0
    outer loop
      vertex -7.95745 18.1002 14
      vertex -8.51812 17.59 0
      vertex -7.95745 18.1002 0
    endloop
  endfacet
  facet normal 0.99889 0.0470958 0
    outer loop
      vertex -16.0824 -1.51513 14
      vertex -16.1181 -0.757941 0
      vertex -16.1181 -0.757941 14
    endloop
  endfacet
  facet normal 0.99889 0.0470958 0
    outer loop
      vertex -16.1181 -0.757941 0
      vertex -16.0824 -1.51513 14
      vertex -16.0824 -1.51513 0
    endloop
  endfacet
  facet normal 0.99889 -0.0470958 0
    outer loop
      vertex -16.1181 0.757941 14
      vertex -16.0824 1.51513 0
      vertex -16.0824 1.51513 14
    endloop
  endfacet
  facet normal 0.99889 -0.0470958 0
    outer loop
      vertex -16.0824 1.51513 0
      vertex -16.1181 0.757941 14
      vertex -16.1181 0.757941 0
    endloop
  endfacet
  facet normal 0.993958 0.109757 0
    outer loop
      vertex -15.9397 -3.02429 14
      vertex -16.0229 -2.27083 0
      vertex -16.0229 -2.27083 14
    endloop
  endfacet
  facet normal 0.993958 0.109757 0
    outer loop
      vertex -16.0229 -2.27083 0
      vertex -15.9397 -3.02429 14
      vertex -15.9397 -3.02429 0
    endloop
  endfacet
  facet normal 0.852613 0.522543 0
    outer loop
      vertex -12.3736 -12.9295 14
      vertex -12.7697 -12.2832 0
      vertex -12.7697 -12.2832 14
    endloop
  endfacet
  facet normal 0.852613 0.522543 0
    outer loop
      vertex -12.7697 -12.2832 0
      vertex -12.3736 -12.9295 14
      vertex -12.3736 -12.9295 0
    endloop
  endfacet
  facet normal 0.6252 0.780465 -0
    outer loop
      vertex -6.78945 -19.0664 0
      vertex -7.38104 -18.5925 14
      vertex -6.78945 -19.0664 14
    endloop
  endfacet
  facet normal 0.6252 0.780465 0
    outer loop
      vertex -7.38104 -18.5925 14
      vertex -6.78945 -19.0664 0
      vertex -7.38104 -18.5925 0
    endloop
  endfacet
  facet normal 0.979228 -0.202761 0
    outer loop
      vertex -15.7026 4.52151 14
      vertex -15.5489 5.2638 0
      vertex -15.5489 5.2638 14
    endloop
  endfacet
  facet normal 0.979228 -0.202761 0
    outer loop
      vertex -15.5489 5.2638 0
      vertex -15.7026 4.52151 14
      vertex -15.7026 4.52151 0
    endloop
  endfacet
  facet normal 0.996915 -0.078492 0
    outer loop
      vertex -16.0824 1.51513 14
      vertex -16.0229 2.27083 0
      vertex -16.0229 2.27083 14
    endloop
  endfacet
  facet normal 0.996915 -0.078492 0
    outer loop
      vertex -16.0229 2.27083 0
      vertex -16.0824 1.51513 14
      vertex -16.0824 1.51513 0
    endloop
  endfacet
  facet normal 0.999877 0.0156985 0
    outer loop
      vertex -16.1181 -0.757941 14
      vertex -16.13 0 0
      vertex -16.13 0 14
    endloop
  endfacet
  facet normal 0.999877 0.0156985 0
    outer loop
      vertex -16.13 0 0
      vertex -16.1181 -0.757941 14
      vertex -16.1181 -0.757941 0
    endloop
  endfacet
  facet normal 0.835866 0.548933 0
    outer loop
      vertex -11.9575 -13.5631 14
      vertex -12.3736 -12.9295 0
      vertex -12.3736 -12.9295 14
    endloop
  endfacet
  facet normal 0.835866 0.548933 0
    outer loop
      vertex -12.3736 -12.9295 0
      vertex -11.9575 -13.5631 14
      vertex -11.9575 -13.5631 0
    endloop
  endfacet
  facet normal 0.946102 -0.323868 0
    outer loop
      vertex -14.949 7.45658 14
      vertex -14.7035 8.17375 0
      vertex -14.7035 8.17375 14
    endloop
  endfacet
  facet normal 0.946102 -0.323868 0
    outer loop
      vertex -14.7035 8.17375 0
      vertex -14.949 7.45658 14
      vertex -14.949 7.45658 0
    endloop
  endfacet
  facet normal 0.718153 0.695885 0
    outer loop
      vertex -9.06249 -17.0625 14
      vertex -9.59001 -16.5181 0
      vertex -9.59001 -16.5181 14
    endloop
  endfacet
  facet normal 0.718153 0.695885 0
    outer loop
      vertex -9.59001 -16.5181 0
      vertex -9.06249 -17.0625 14
      vertex -9.06249 -17.0625 0
    endloop
  endfacet
  facet normal 0.835866 -0.548933 0
    outer loop
      vertex -12.3736 12.9295 14
      vertex -11.9575 13.5631 0
      vertex -11.9575 13.5631 14
    endloop
  endfacet
  facet normal 0.835866 -0.548933 0
    outer loop
      vertex -11.9575 13.5631 0
      vertex -12.3736 12.9295 14
      vertex -12.3736 12.9295 0
    endloop
  endfacet
  facet normal 0.923875 0.382694 0
    outer loop
      vertex -14.1454 -9.58318 14
      vertex -14.4355 -8.88284 0
      vertex -14.4355 -8.88284 14
    endloop
  endfacet
  facet normal 0.923875 0.382694 0
    outer loop
      vertex -14.4355 -8.88284 0
      vertex -14.1454 -9.58318 14
      vertex -14.1454 -9.58318 0
    endloop
  endfacet
  facet normal 0.985116 -0.171892 0
    outer loop
      vertex -15.8329 3.77476 14
      vertex -15.7026 4.52151 0
      vertex -15.7026 4.52151 14
    endloop
  endfacet
  facet normal 0.985116 -0.171892 0
    outer loop
      vertex -15.7026 4.52151 0
      vertex -15.8329 3.77476 14
      vertex -15.8329 3.77476 0
    endloop
  endfacet
  facet normal 0.600471 -0.799647 0
    outer loop
      vertex -6.78945 19.0664 0
      vertex -6.18326 19.5216 14
      vertex -6.78945 19.0664 14
    endloop
  endfacet
  facet normal 0.600471 -0.799647 0
    outer loop
      vertex -6.18326 19.5216 14
      vertex -6.78945 19.0664 0
      vertex -6.18326 19.5216 0
    endloop
  endfacet
  facet normal 0.6252 -0.780465 0
    outer loop
      vertex -7.38104 18.5925 0
      vertex -6.78945 19.0664 14
      vertex -7.38104 18.5925 14
    endloop
  endfacet
  facet normal 0.6252 -0.780465 0
    outer loop
      vertex -6.78945 19.0664 14
      vertex -7.38104 18.5925 0
      vertex -6.78945 19.0664 0
    endloop
  endfacet
  facet normal 0.649448 0.760406 -0
    outer loop
      vertex -7.38104 -18.5925 0
      vertex -7.95745 -18.1002 14
      vertex -7.38104 -18.5925 14
    endloop
  endfacet
  facet normal 0.649448 0.760406 0
    outer loop
      vertex -7.95745 -18.1002 14
      vertex -7.38104 -18.5925 0
      vertex -7.95745 -18.1002 0
    endloop
  endfacet
  facet normal 0.996915 0.078492 0
    outer loop
      vertex -16.0229 -2.27083 14
      vertex -16.0824 -1.51513 0
      vertex -16.0824 -1.51513 14
    endloop
  endfacet
  facet normal 0.996915 0.078492 0
    outer loop
      vertex -16.0824 -1.51513 0
      vertex -16.0229 -2.27083 14
      vertex -16.0229 -2.27083 0
    endloop
  endfacet
  facet normal 0.739576 0.673073 0
    outer loop
      vertex -9.59001 -16.5181 14
      vertex -10.1002 -15.9575 0
      vertex -10.1002 -15.9575 14
    endloop
  endfacet
  facet normal 0.739576 0.673073 0
    outer loop
      vertex -10.1002 -15.9575 0
      vertex -9.59001 -16.5181 14
      vertex -9.59001 -16.5181 0
    endloop
  endfacet
  facet normal 0.911434 0.411446 0
    outer loop
      vertex -13.8335 -10.2741 14
      vertex -14.1454 -9.58318 0
      vertex -14.1454 -9.58318 14
    endloop
  endfacet
  facet normal 0.911434 0.411446 0
    outer loop
      vertex -14.1454 -9.58318 0
      vertex -13.8335 -10.2741 14
      vertex -13.8335 -10.2741 0
    endloop
  endfacet
  facet normal 0.935419 0.353541 0
    outer loop
      vertex -14.4355 -8.88284 14
      vertex -14.7035 -8.17375 0
      vertex -14.7035 -8.17375 14
    endloop
  endfacet
  facet normal 0.935419 0.353541 0
    outer loop
      vertex -14.7035 -8.17375 0
      vertex -14.4355 -8.88284 14
      vertex -14.4355 -8.88284 0
    endloop
  endfacet
  facet normal 0.382697 0.923874 -0
    outer loop
      vertex -0.882845 -22.4355 0
      vertex -1.58318 -22.1454 14
      vertex -0.882845 -22.4355 14
    endloop
  endfacet
  facet normal 0.382697 0.923874 0
    outer loop
      vertex -1.58318 -22.1454 14
      vertex -0.882845 -22.4355 0
      vertex -1.58318 -22.1454 0
    endloop
  endfacet
  facet normal 0.985116 0.171892 0
    outer loop
      vertex -15.7026 -4.52151 14
      vertex -15.8329 -3.77476 0
      vertex -15.8329 -3.77476 14
    endloop
  endfacet
  facet normal 0.985116 0.171892 0
    outer loop
      vertex -15.8329 -3.77476 0
      vertex -15.7026 -4.52151 14
      vertex -15.7026 -4.52151 0
    endloop
  endfacet
  facet normal 0.495485 -0.868616 0
    outer loop
      vertex -4.28317 20.7697 0
      vertex -3.62472 21.1453 14
      vertex -4.28317 20.7697 14
    endloop
  endfacet
  facet normal 0.495485 -0.868616 0
    outer loop
      vertex -3.62472 21.1453 14
      vertex -4.28317 20.7697 0
      vertex -3.62472 21.1453 0
    endloop
  endfacet
  facet normal 0.868633 0.495457 0
    outer loop
      vertex -12.7697 -12.2832 14
      vertex -13.1453 -11.6247 0
      vertex -13.1453 -11.6247 14
    endloop
  endfacet
  facet normal 0.868633 0.495457 0
    outer loop
      vertex -13.1453 -11.6247 0
      vertex -12.7697 -12.2832 14
      vertex -12.7697 -12.2832 0
    endloop
  endfacet
  facet normal 0.990025 -0.140891 0
    outer loop
      vertex -15.9397 3.02429 14
      vertex -15.8329 3.77476 0
      vertex -15.8329 3.77476 14
    endloop
  endfacet
  facet normal 0.990025 -0.140891 0
    outer loop
      vertex -15.8329 3.77476 0
      vertex -15.9397 3.02429 14
      vertex -15.9397 3.02429 0
    endloop
  endfacet
  facet normal 0.990025 0.140891 0
    outer loop
      vertex -15.8329 -3.77476 14
      vertex -15.9397 -3.02429 0
      vertex -15.9397 -3.02429 14
    endloop
  endfacet
  facet normal 0.990025 0.140891 0
    outer loop
      vertex -15.9397 -3.02429 0
      vertex -15.8329 -3.77476 14
      vertex -15.8329 -3.77476 0
    endloop
  endfacet
  facet normal 0.999877 -0.0156985 0
    outer loop
      vertex -16.13 0 14
      vertex -16.1181 0.757941 0
      vertex -16.1181 0.757941 14
    endloop
  endfacet
  facet normal 0.999877 -0.0156985 0
    outer loop
      vertex -16.1181 0.757941 0
      vertex -16.13 0 14
      vertex -16.13 0 0
    endloop
  endfacet
  facet normal 0.46792 0.883771 -0
    outer loop
      vertex -2.95479 -21.5 0
      vertex -3.62472 -21.1453 14
      vertex -2.95479 -21.5 14
    endloop
  endfacet
  facet normal 0.46792 0.883771 0
    outer loop
      vertex -3.62472 -21.1453 14
      vertex -2.95479 -21.5 0
      vertex -3.62472 -21.1453 0
    endloop
  endfacet
  facet normal 0.495485 0.868616 -0
    outer loop
      vertex -3.62472 -21.1453 0
      vertex -4.28317 -20.7697 14
      vertex -3.62472 -21.1453 14
    endloop
  endfacet
  facet normal 0.495485 0.868616 0
    outer loop
      vertex -4.28317 -20.7697 14
      vertex -3.62472 -21.1453 0
      vertex -4.28317 -20.7697 0
    endloop
  endfacet
  facet normal 0.883762 -0.467936 0
    outer loop
      vertex -13.5 10.9548 14
      vertex -13.1453 11.6247 0
      vertex -13.1453 11.6247 14
    endloop
  endfacet
  facet normal 0.883762 -0.467936 0
    outer loop
      vertex -13.1453 11.6247 0
      vertex -13.5 10.9548 14
      vertex -13.5 10.9548 0
    endloop
  endfacet
  facet normal 0.852613 -0.522543 0
    outer loop
      vertex -12.7697 12.2832 14
      vertex -12.3736 12.9295 0
      vertex -12.3736 12.9295 14
    endloop
  endfacet
  facet normal 0.852613 -0.522543 0
    outer loop
      vertex -12.3736 12.9295 0
      vertex -12.7697 12.2832 14
      vertex -12.7697 12.2832 0
    endloop
  endfacet
  facet normal 0.649448 -0.760406 0
    outer loop
      vertex -7.95745 18.1002 0
      vertex -7.38104 18.5925 14
      vertex -7.95745 18.1002 14
    endloop
  endfacet
  facet normal 0.649448 -0.760406 0
    outer loop
      vertex -7.38104 18.5925 14
      vertex -7.95745 18.1002 0
      vertex -7.38104 18.5925 0
    endloop
  endfacet
  facet normal 0.695892 -0.718147 0
    outer loop
      vertex -9.06249 17.0625 0
      vertex -8.51812 17.59 14
      vertex -9.06249 17.0625 14
    endloop
  endfacet
  facet normal 0.695892 -0.718147 0
    outer loop
      vertex -8.51812 17.59 14
      vertex -9.06249 17.0625 0
      vertex -8.51812 17.59 0
    endloop
  endfacet
  facet normal 0.46792 -0.883771 0
    outer loop
      vertex -3.62472 21.1453 0
      vertex -2.95479 21.5 14
      vertex -3.62472 21.1453 14
    endloop
  endfacet
  facet normal 0.46792 -0.883771 0
    outer loop
      vertex -2.95479 21.5 14
      vertex -3.62472 21.1453 0
      vertex -2.95479 21.5 0
    endloop
  endfacet
  facet normal 0.760456 0.649389 0
    outer loop
      vertex -10.1002 -15.9575 14
      vertex -10.5925 -15.381 0
      vertex -10.5925 -15.381 14
    endloop
  endfacet
  facet normal 0.760456 0.649389 0
    outer loop
      vertex -10.5925 -15.381 0
      vertex -10.1002 -15.9575 14
      vertex -10.1002 -15.9575 0
    endloop
  endfacet
  facet normal 0.718153 -0.695885 0
    outer loop
      vertex -9.59001 16.5181 14
      vertex -9.06249 17.0625 0
      vertex -9.06249 17.0625 14
    endloop
  endfacet
  facet normal 0.718153 -0.695885 0
    outer loop
      vertex -9.06249 17.0625 0
      vertex -9.59001 16.5181 14
      vertex -9.59001 16.5181 0
    endloop
  endfacet
  facet normal 0.911434 -0.411446 0
    outer loop
      vertex -14.1454 9.58318 14
      vertex -13.8335 10.2741 0
      vertex -13.8335 10.2741 14
    endloop
  endfacet
  facet normal 0.911434 -0.411446 0
    outer loop
      vertex -13.8335 10.2741 0
      vertex -14.1454 9.58318 14
      vertex -14.1454 9.58318 0
    endloop
  endfacet
  facet normal 0.548951 -0.835854 0
    outer loop
      vertex -5.56307 19.9575 0
      vertex -4.9295 20.3736 14
      vertex -5.56307 19.9575 14
    endloop
  endfacet
  facet normal 0.548951 -0.835854 0
    outer loop
      vertex -4.9295 20.3736 14
      vertex -5.56307 19.9575 0
      vertex -4.9295 20.3736 0
    endloop
  endfacet
  facet normal 0.575026 -0.818135 0
    outer loop
      vertex -6.18326 19.5216 0
      vertex -5.56307 19.9575 14
      vertex -6.18326 19.5216 14
    endloop
  endfacet
  facet normal 0.575026 -0.818135 0
    outer loop
      vertex -5.56307 19.9575 14
      vertex -6.18326 19.5216 0
      vertex -5.56307 19.9575 0
    endloop
  endfacet
  facet normal 0.799604 -0.600528 0
    outer loop
      vertex -11.5216 14.1833 14
      vertex -11.0664 14.7894 0
      vertex -11.0664 14.7894 14
    endloop
  endfacet
  facet normal 0.799604 -0.600528 0
    outer loop
      vertex -11.0664 14.7894 0
      vertex -11.5216 14.1833 14
      vertex -11.5216 14.1833 0
    endloop
  endfacet
  facet normal 0.522526 -0.852623 0
    outer loop
      vertex -4.9295 20.3736 0
      vertex -4.28317 20.7697 14
      vertex -4.9295 20.3736 14
    endloop
  endfacet
  facet normal 0.522526 -0.852623 0
    outer loop
      vertex -4.28317 20.7697 14
      vertex -4.9295 20.3736 0
      vertex -4.28317 20.7697 0
    endloop
  endfacet
  facet normal 0.898013 -0.43997 0
    outer loop
      vertex -13.8335 10.2741 14
      vertex -13.5 10.9548 0
      vertex -13.5 10.9548 14
    endloop
  endfacet
  facet normal 0.898013 -0.43997 0
    outer loop
      vertex -13.5 10.9548 0
      vertex -13.8335 10.2741 14
      vertex -13.8335 10.2741 0
    endloop
  endfacet
  facet normal 0.979228 0.202761 0
    outer loop
      vertex -15.5489 -5.2638 14
      vertex -15.7026 -4.52151 0
      vertex -15.7026 -4.52151 14
    endloop
  endfacet
  facet normal 0.979228 0.202761 0
    outer loop
      vertex -15.7026 -4.52151 0
      vertex -15.5489 -5.2638 14
      vertex -15.5489 -5.2638 0
    endloop
  endfacet
  facet normal 0.600471 0.799647 -0
    outer loop
      vertex -6.18326 -19.5216 0
      vertex -6.78945 -19.0664 14
      vertex -6.18326 -19.5216 14
    endloop
  endfacet
  facet normal 0.600471 0.799647 0
    outer loop
      vertex -6.78945 -19.0664 14
      vertex -6.18326 -19.5216 0
      vertex -6.78945 -19.0664 0
    endloop
  endfacet
  facet normal 0.439949 -0.898023 0
    outer loop
      vertex -2.95479 21.5 0
      vertex -2.27405 21.8335 14
      vertex -2.95479 21.5 14
    endloop
  endfacet
  facet normal 0.439949 -0.898023 0
    outer loop
      vertex -2.27405 21.8335 14
      vertex -2.95479 21.5 0
      vertex -2.27405 21.8335 0
    endloop
  endfacet
  facet normal 0.955791 0.294047 0
    outer loop
      vertex -14.949 -7.45658 14
      vertex -15.1719 -6.73205 0
      vertex -15.1719 -6.73205 14
    endloop
  endfacet
  facet normal 0.955791 0.294047 0
    outer loop
      vertex -15.1719 -6.73205 0
      vertex -14.949 -7.45658 14
      vertex -14.949 -7.45658 0
    endloop
  endfacet
  facet normal 0.898013 0.43997 0
    outer loop
      vertex -13.5 -10.9548 14
      vertex -13.8335 -10.2741 0
      vertex -13.8335 -10.2741 14
    endloop
  endfacet
  facet normal 0.898013 0.43997 0
    outer loop
      vertex -13.8335 -10.2741 0
      vertex -13.5 -10.9548 14
      vertex -13.5 -10.9548 0
    endloop
  endfacet
  facet normal 0.353537 -0.935421 0
    outer loop
      vertex -0.882845 22.4355 0
      vertex -0.173745 22.7035 14
      vertex -0.882845 22.4355 14
    endloop
  endfacet
  facet normal 0.353537 -0.935421 0
    outer loop
      vertex -0.173745 22.7035 14
      vertex -0.882845 22.4355 0
      vertex -0.173745 22.7035 0
    endloop
  endfacet
  facet normal 0.923875 -0.382694 0
    outer loop
      vertex -14.4355 8.88284 14
      vertex -14.1454 9.58318 0
      vertex -14.1454 9.58318 14
    endloop
  endfacet
  facet normal 0.923875 -0.382694 0
    outer loop
      vertex -14.1454 9.58318 0
      vertex -14.4355 8.88284 14
      vertex -14.4355 8.88284 0
    endloop
  endfacet
  facet normal 0.883762 0.467936 0
    outer loop
      vertex -13.1453 -11.6247 14
      vertex -13.5 -10.9548 0
      vertex -13.5 -10.9548 14
    endloop
  endfacet
  facet normal 0.883762 0.467936 0
    outer loop
      vertex -13.5 -10.9548 0
      vertex -13.1453 -11.6247 14
      vertex -13.1453 -11.6247 0
    endloop
  endfacet
  facet normal 0.548951 0.835854 -0
    outer loop
      vertex -4.9295 -20.3736 0
      vertex -5.56307 -19.9575 14
      vertex -4.9295 -20.3736 14
    endloop
  endfacet
  facet normal 0.548951 0.835854 0
    outer loop
      vertex -5.56307 -19.9575 14
      vertex -4.9295 -20.3736 0
      vertex -5.56307 -19.9575 0
    endloop
  endfacet
  facet normal 0.81814 -0.57502 0
    outer loop
      vertex -11.9575 13.5631 14
      vertex -11.5216 14.1833 0
      vertex -11.5216 14.1833 14
    endloop
  endfacet
  facet normal 0.81814 -0.57502 0
    outer loop
      vertex -11.5216 14.1833 0
      vertex -11.9575 13.5631 14
      vertex -11.9575 13.5631 0
    endloop
  endfacet
  facet normal 0.964565 -0.263845 0
    outer loop
      vertex -15.3719 6.00089 14
      vertex -15.1719 6.73205 0
      vertex -15.1719 6.73205 14
    endloop
  endfacet
  facet normal 0.964565 -0.263845 0
    outer loop
      vertex -15.1719 6.73205 0
      vertex -15.3719 6.00089 14
      vertex -15.3719 6.00089 0
    endloop
  endfacet
  facet normal 0.522526 0.852623 -0
    outer loop
      vertex -4.28317 -20.7697 0
      vertex -4.9295 -20.3736 14
      vertex -4.28317 -20.7697 14
    endloop
  endfacet
  facet normal 0.522526 0.852623 0
    outer loop
      vertex -4.9295 -20.3736 14
      vertex -4.28317 -20.7697 0
      vertex -4.9295 -20.3736 0
    endloop
  endfacet
  facet normal 0.972358 -0.233496 0
    outer loop
      vertex -15.5489 5.2638 14
      vertex -15.3719 6.00089 0
      vertex -15.3719 6.00089 14
    endloop
  endfacet
  facet normal 0.972358 -0.233496 0
    outer loop
      vertex -15.3719 6.00089 0
      vertex -15.5489 5.2638 14
      vertex -15.5489 5.2638 0
    endloop
  endfacet
  facet normal 0.353537 0.935421 -0
    outer loop
      vertex -0.173745 -22.7035 0
      vertex -0.882845 -22.4355 14
      vertex -0.173745 -22.7035 14
    endloop
  endfacet
  facet normal 0.353537 0.935421 0
    outer loop
      vertex -0.882845 -22.4355 14
      vertex -0.173745 -22.7035 0
      vertex -0.882845 -22.4355 0
    endloop
  endfacet
  facet normal 0.946102 0.323868 0
    outer loop
      vertex -14.7035 -8.17375 14
      vertex -14.949 -7.45658 0
      vertex -14.949 -7.45658 14
    endloop
  endfacet
  facet normal 0.946102 0.323868 0
    outer loop
      vertex -14.949 -7.45658 0
      vertex -14.7035 -8.17375 14
      vertex -14.7035 -8.17375 0
    endloop
  endfacet
  facet normal 0.964565 0.263845 0
    outer loop
      vertex -15.1719 -6.73205 14
      vertex -15.3719 -6.00089 0
      vertex -15.3719 -6.00089 14
    endloop
  endfacet
  facet normal 0.964565 0.263845 0
    outer loop
      vertex -15.3719 -6.00089 0
      vertex -15.1719 -6.73205 14
      vertex -15.1719 -6.73205 0
    endloop
  endfacet
  facet normal 0.739576 -0.673073 0
    outer loop
      vertex -10.1002 15.9575 14
      vertex -9.59001 16.5181 0
      vertex -9.59001 16.5181 14
    endloop
  endfacet
  facet normal 0.739576 -0.673073 0
    outer loop
      vertex -9.59001 16.5181 0
      vertex -10.1002 15.9575 14
      vertex -10.1002 15.9575 0
    endloop
  endfacet
  facet normal 0.993958 -0.109757 0
    outer loop
      vertex -16.0229 2.27083 14
      vertex -15.9397 3.02429 0
      vertex -15.9397 3.02429 14
    endloop
  endfacet
  facet normal 0.993958 -0.109757 0
    outer loop
      vertex -15.9397 3.02429 0
      vertex -16.0229 2.27083 14
      vertex -16.0229 2.27083 0
    endloop
  endfacet
  facet normal 0.760456 -0.649389 0
    outer loop
      vertex -10.5925 15.381 14
      vertex -10.1002 15.9575 0
      vertex -10.1002 15.9575 14
    endloop
  endfacet
  facet normal 0.760456 -0.649389 0
    outer loop
      vertex -10.1002 15.9575 0
      vertex -10.5925 15.381 14
      vertex -10.5925 15.381 0
    endloop
  endfacet
  facet normal 0.799604 0.600528 0
    outer loop
      vertex -11.0664 -14.7894 14
      vertex -11.5216 -14.1833 0
      vertex -11.5216 -14.1833 14
    endloop
  endfacet
  facet normal 0.799604 0.600528 0
    outer loop
      vertex -11.5216 -14.1833 0
      vertex -11.0664 -14.7894 14
      vertex -11.0664 -14.7894 0
    endloop
  endfacet
  facet normal 0.868633 -0.495457 0
    outer loop
      vertex -13.1453 11.6247 14
      vertex -12.7697 12.2832 0
      vertex -12.7697 12.2832 14
    endloop
  endfacet
  facet normal 0.868633 -0.495457 0
    outer loop
      vertex -12.7697 12.2832 0
      vertex -13.1453 11.6247 14
      vertex -13.1453 11.6247 0
    endloop
  endfacet
  facet normal 0.411471 0.911423 -0
    outer loop
      vertex -1.58318 -22.1454 0
      vertex -2.27405 -21.8335 14
      vertex -1.58318 -22.1454 14
    endloop
  endfacet
  facet normal 0.411471 0.911423 0
    outer loop
      vertex -2.27405 -21.8335 14
      vertex -1.58318 -22.1454 0
      vertex -2.27405 -21.8335 0
    endloop
  endfacet
endsolid OpenSCAD_Model
